
        <svg xmlns="http://www.w3.org/2000/svg" xmlns:xlink="http://www.w3.org/1999/xlink" version="1.1" width="3348.3063082273393" height="1510.8360067920505" viewBox="0 0 3348.3063082273393 1510.8360067920505">

			<g transform="scale(17.415315411366972) translate(10, 10)">
				<defs id="SvgjsDefs1128"/><g id="SvgjsG1129" featureKey="nameLeftFeature-0" transform="matrix(1,0,0,1,0,48)" fill="#fff"><path d=""/></g><g id="SvgjsG1130" featureKey="inlineSymbolFeature-0" transform="matrix(0.7532956541187954,0,0,0.7532956541187954,5,29.977402049926795)" fill="#fff">    <title xmlns="http://www.w3.org/2000/svg">Asset 76LETTERS3</title>    <g xmlns="http://www.w3.org/2000/svg" id="Page-1" stroke-width="1" fill-rule="evenodd">        <g id="Artboard" transform="translate(-5256.000000, -160.000000)" fill-rule="nonzero">            <g id="Asset-76LETTERS3" transform="translate(5256.000000, 160.030000)">                <path d="M51.7200227,47.79 L28.1100227,47.79 L21.0100227,39.31 L27.7700227,31.25 C28.5100227,30.38 27.9700227,28.81 26.1700227,28.96 L19.2500227,37.2 L17.7200227,39.03 L12.1300227,45.69 C11.0100227,47.02 9.36002267,47.79 7.62002267,47.79 L6.03002267,47.79 C2.70002267,47.79 0,45.09 0,41.76 L0,7.37 C-0.00997733263,3.3 3.29002267,0 7.36002267,0 L10.4200227,0 C14.4500227,0 17.7200227,3.27 17.7200227,7.3 L17.7200227,7.3 L17.3400227,7.76 L13.4200227,12.43 L6.66002267,20.48 C5.93002267,21.36 6.47002267,22.93 8.28002267,22.78 L15.2000227,14.53 L17.7200227,11.54 L19.5100227,9.4 L20.8800227,7.76 L43.9600227,7.76 L38.9200227,13.77 L31.0500227,23.14 L32.8100227,25.24 L51.7200227,47.79 Z" id="Path" stroke="none"/>            </g>        </g>    </g></g><g id="SvgjsG1131" featureKey="nameRightFeature-0" transform="matrix(2.4064169527583177,0,0,2.4064169527583177,42.65245483785051,17.87170684359449)" fill="#fff"><path d="M3.98 17.4 c0 0.14666 0.02 0.24666 0.06 0.3 s0.08666 0.1 0.14 0.14 c0.10666 0.08 0.21332 0.19334 0.31998 0.34 s0.16 0.33332 0.16 0.55998 l0 1.26 l-4.1 0 l0 -1.26 c0 -0.22666 0.05334 -0.41332 0.16 -0.55998 s0.21332 -0.26 0.31998 -0.34 c0.06666 -0.04 0.11666 -0.08666 0.15 -0.14 s0.05 -0.15334 0.05 -0.3 l0 -9.74 l0 -0.02 c0 -0.13334 -0.01666 -0.22668 -0.05 -0.28002 s-0.08334 -0.10668 -0.15 -0.16002 c-0.10666 -0.08 -0.21332 -0.19334 -0.31998 -0.34 s-0.16 -0.33332 -0.16 -0.55998 l0 -1.26 l4.1 0 l0 1.26 c0 0.22666 -0.05334 0.41332 -0.16 0.55998 s-0.21332 0.26 -0.31998 0.34 c-0.05334 0.05334 -0.1 0.10668 -0.14 0.16002 s-0.06 0.14668 -0.06 0.28002 l0 0.02 l0 9.74 l0 0 z M9.2 17.4 c0 0.14666 0.02 0.24666 0.06 0.3 s0.08666 0.1 0.14 0.14 c0.10666 0.08 0.21332 0.19334 0.31998 0.34 s0.16 0.33332 0.16 0.55998 l0 1.26 l-4.1 0 l0 -1.26 c0 -0.22666 0.05334 -0.41332 0.16 -0.55998 s0.21332 -0.26 0.31998 -0.34 c0.06666 -0.04 0.11666 -0.08666 0.15 -0.14 s0.05 -0.15334 0.05 -0.3 l0 -9.74 l0 -0.02 c0 -0.13334 -0.01666 -0.22668 -0.05 -0.28002 s-0.08334 -0.10668 -0.15 -0.16002 c-0.10666 -0.08 -0.21332 -0.19334 -0.31998 -0.34 s-0.16 -0.33332 -0.16 -0.55998 l0 -1.26 l4.1 0 l0 1.26 c0 0.22666 -0.05334 0.41332 -0.16 0.55998 s-0.21332 0.26 -0.31998 0.34 c-0.05334 0.05334 -0.1 0.10668 -0.14 0.16002 s-0.06 0.14668 -0.06 0.28002 l0 0.02 l0 9.74 l0 0 z M18.48 16.54 l0.00002 2.95998 c0 0.16 -0.04334 0.28 -0.13 0.36 s-0.20332 0.12 -0.34998 0.12 l-6.5 0 c-0.14666 0 -0.26666 -0.05 -0.36 -0.15 s-0.14 -0.21666 -0.14 -0.35 l0 -1.88 c0 -0.14666 0.00666 -0.24 0.02 -0.28 s0.02668 -0.07334 0.04002 -0.1 c0.8 -1.72 1.52 -3.26 2.16 -4.62 c0.26666 -0.57334 0.53 -1.14 0.79 -1.7 s0.49666 -1.06334 0.71 -1.51 s0.38334 -0.81 0.51 -1.09 s0.19666 -0.43334 0.21 -0.46 c0.02666 -0.08 0.01332 -0.15 -0.04002 -0.21 s-0.14668 -0.09 -0.28002 -0.09 l-1.36 0 c-0.12 0 -0.22334 0.02 -0.31 0.06 s-0.13 0.11334 -0.13 0.22 l0 0.68 l-0.98 0 c-0.34666 0 -0.61666 -0.10334 -0.81 -0.31 s-0.29 -0.46332 -0.29 -0.76998 l0 -1.9 c0 -0.32 0.14666 -0.48 0.44 -0.48 l1.32 0 l4.72 0 c0.16 0 0.29 0.04666 0.39 0.14 s0.15 0.22 0.15 0.38 l0 1.86 c0 0.06666 -0.00334 0.12332 -0.01 0.16998 s-0.01666 0.09 -0.03 0.13 c-0.01334 0.05334 -0.02 0.09334 -0.02 0.12 c-0.74666 1.70666 -1.42 3.23332 -2.02 4.57998 c-0.25334 0.57334 -0.50334 1.13668 -0.75 1.69002 s-0.46666 1.05 -0.66 1.49 s-0.35334 0.8 -0.48 1.08 s-0.19 0.42666 -0.19 0.44 c-0.02666 0.09334 -0.02666 0.18668 0 0.28002 s0.09332 0.14 0.19998 0.14 l2.08 0 c0 -0.26666 0.07334 -0.5 0.22 -0.7 s0.42666 -0.3 0.84 -0.3 l1.04 0 z M28.64 17.72 c0.10666 0.06666 0.2067 0.173301 0.30004 0.31996 s0.14 0.33332 0.14 0.55998 l0 1.4 l-4 0 l0 -1.16 c0 -0.24 0.04666 -0.46 0.14 -0.66 s0.19334 -0.33334 0.3 -0.4 c0.06666 -0.05334 0.12332 -0.10668 0.16998 -0.16002 s0.07 -0.14 0.07 -0.26 c-0.01334 -0.10666 -0.02668 -0.20666 -0.04002 -0.3 c-0.01334 -0.08 -0.03 -0.16334 -0.05 -0.25 s-0.03666 -0.16332 -0.05 -0.22998 c-0.02666 -0.10666 -0.07332 -0.17666 -0.13998 -0.21 s-0.15332 -0.05 -0.25998 -0.05 l-1.88 0 c-0.12 0 -0.20334 0.01 -0.25 0.03 s-0.08332 0.09666 -0.10998 0.23 c-0.01334 0.06666 -0.02668 0.14332 -0.04002 0.22998 s-0.03334 0.17 -0.06 0.25 c-0.02666 0.09334 -0.04666 0.19334 -0.06 0.3 c0 0.12 0.01334 0.20666 0.04 0.26 s0.07332 0.10668 0.13998 0.16002 c0.10666 0.06666 0.20666 0.20332 0.3 0.40998 s0.14 0.43 0.14 0.67 l0 1.14 l-3.94 0 l0 -1.4 c0 -0.22666 0.05 -0.41332 0.15 -0.55998 s0.19666 -0.25332 0.29 -0.31998 c0.06666 -0.05334 0.12666 -0.11334 0.18 -0.18 s0.09334 -0.15332 0.12 -0.25998 c0.37334 -1.77334 0.71334 -3.36668 1.02 -4.78002 c0.13334 -0.6 0.26 -1.18666 0.38 -1.76 s0.23 -1.08668 0.33 -1.54002 s0.18 -0.82 0.24 -1.1 s0.09 -0.42666 0.09 -0.44 c0.02666 -0.10666 0.04 -0.20332 0.04 -0.28998 s-0.03334 -0.14332 -0.1 -0.16998 c-0.14666 -0.06666 -0.26666 -0.17666 -0.36 -0.33 s-0.14 -0.38334 -0.14 -0.69 l0 -1.14 l3.1 0 c0.30666 0 0.55 0.09334 0.73 0.28 s0.29 0.39332 0.33 0.61998 c0 0.05334 0.03666 0.25668 0.11 0.61002 s0.17 0.8 0.29 1.34 s0.25334 1.14666 0.4 1.82 s0.29332 1.35668 0.43998 2.05002 c0.34666 1.62666 0.74666 3.46666 1.2 5.52 c0.04 0.17334 0.14 0.32 0.3 0.44 z M25.00004 14.01998 c0.09334 0 0.153379 -0.009961 0.180039 -0.029961 s0.03332 -0.07 0.01998 -0.15 c0 -0.02666 -0.02334 -0.16666 -0.07 -0.42 s-0.1 -0.56 -0.16 -0.92 s-0.12666 -0.75 -0.2 -1.17 s-0.14 -0.81 -0.2 -1.17 s-0.11334 -0.66 -0.16 -0.9 s-0.07 -0.36666 -0.07 -0.38 c0 -0.05334 -0.01666 -0.07668 -0.05 -0.07002 s-0.05668 0.02332 -0.07002 0.04998 c0 0.01334 -0.02 0.14334 -0.06 0.39 s-0.09334 0.55 -0.16 0.91 s-0.13666 0.74666 -0.21 1.16 s-0.14334 0.80334 -0.21 1.17 s-0.12332 0.67666 -0.16998 0.93 s-0.07 0.39334 -0.07 0.42 c-0.01334 0.08 -0.00668 0.13 0.01998 0.15 s0.08666 0.03 0.18 0.03 l1.46 0 z M43.26 6.34 c0 0.22666 -0.036523 0.40996 -0.109863 0.54996 s-0.15668 0.25 -0.25002 0.33 c-0.10666 0.09334 -0.22 0.16 -0.34 0.2 l0 9.98 l0.02 0 c0 0.13334 0.01666 0.22668 0.05 0.28002 s0.08334 0.10668 0.15 0.16002 c0.10666 0.08 0.21332 0.19334 0.31998 0.34 s0.16 0.33332 0.16 0.55998 l0 1.26 l-4.12 0 l0 -1.26 c0 -0.22666 0.05334 -0.41332 0.16 -0.55998 s0.21332 -0.26 0.31998 -0.34 c0.06666 -0.05334 0.11666 -0.10668 0.15 -0.16002 s0.05 -0.14668 0.05 -0.28002 l0 -5.8 c0 -0.02666 -0.00334 -0.04666 -0.01 -0.06 s-0.02332 0.00666 -0.04998 0.06 c-0.4 0.62666 -0.76 1.2 -1.08 1.72 c-0.14666 0.22666 -0.28666 0.44666 -0.42 0.66 s-0.25334 0.41 -0.36 0.59 s-0.2 0.33666 -0.28 0.47 s-0.13334 0.22 -0.16 0.26 c-0.06666 0.12 -0.17332 0.20666 -0.31998 0.26 s-0.3 0.08 -0.46 0.08 s-0.31334 -0.02666 -0.46 -0.08 s-0.24666 -0.13334 -0.3 -0.24 c-0.02666 -0.04 -0.07666 -0.12666 -0.15 -0.26 s-0.16334 -0.29334 -0.27 -0.48 s-0.22666 -0.39 -0.36 -0.61 s-0.26668 -0.44334 -0.40002 -0.67 c-0.32 -0.53334 -0.67334 -1.12668 -1.06 -1.78002 c-0.01334 -0.02666 -0.03334 -0.04 -0.06 -0.04 s-0.04 0.02666 -0.04 0.08 l0 5.84 c0 0.13334 0.01666 0.22668 0.05 0.28002 s0.08334 0.10668 0.15 0.16002 c0.10666 0.08 0.21332 0.19334 0.31998 0.34 s0.16 0.33332 0.16 0.55998 l0 1.26 l-4.1 0 l0 -1.26 c0 -0.22666 0.05334 -0.41332 0.16 -0.55998 s0.21332 -0.26 0.31998 -0.34 c0.05334 -0.05334 0.09668 -0.10334 0.13002 -0.15 s0.05668 -0.13 0.07002 -0.25 l0 -10.02 c-0.14666 -0.04 -0.27332 -0.10666 -0.37998 -0.2 c-0.09334 -0.08 -0.17668 -0.19 -0.25002 -0.33 s-0.11 -0.32334 -0.11 -0.55 l0 -1.3 l2.84 0 c0.09334 0 0.17334 0.02334 0.24 0.07 s0.13332 0.15 0.19998 0.31 c0.12 0.26666 0.28 0.59666 0.48 0.99 s0.41334 0.80668 0.64 1.24002 s0.46 0.86668 0.7 1.30002 s0.45334 0.82334 0.64 1.17 s0.34332 0.63 0.46998 0.85 l0.19 0.33 c0.06666 0.09334 0.13332 0.14334 0.19998 0.15 s0.13332 -0.04334 0.19998 -0.15 c0.17334 -0.28 0.35334 -0.58666 0.54 -0.92 c0.16 -0.28 0.34 -0.59334 0.54 -0.94 s0.41334 -0.70666 0.64 -1.08 c0.50666 -0.85334 1.08666 -1.82668 1.74 -2.92002 c0.08 -0.17334 0.16334 -0.28334 0.25 -0.33 s0.18332 -0.07 0.28998 -0.07 l2.36 0 l0 1.3 l0 0 z M53.42 17.72 c0.10666 0.06666 0.2067 0.173301 0.30004 0.31996 s0.14 0.33332 0.14 0.55998 l0 1.4 l-4 0 l0 -1.16 c0 -0.24 0.04666 -0.46 0.14 -0.66 s0.19334 -0.33334 0.3 -0.4 c0.06666 -0.05334 0.12332 -0.10668 0.16998 -0.16002 s0.07 -0.14 0.07 -0.26 c-0.01334 -0.10666 -0.02668 -0.20666 -0.04002 -0.3 c-0.01334 -0.08 -0.03 -0.16334 -0.05 -0.25 s-0.03666 -0.16332 -0.05 -0.22998 c-0.02666 -0.10666 -0.07332 -0.17666 -0.13998 -0.21 s-0.15332 -0.05 -0.25998 -0.05 l-1.88 0 c-0.12 0 -0.20334 0.01 -0.25 0.03 s-0.08332 0.09666 -0.10998 0.23 c-0.01334 0.06666 -0.02668 0.14332 -0.04002 0.22998 s-0.03334 0.17 -0.06 0.25 c-0.02666 0.09334 -0.04666 0.19334 -0.06 0.3 c0 0.12 0.01334 0.20666 0.04 0.26 s0.07332 0.10668 0.13998 0.16002 c0.10666 0.06666 0.20666 0.20332 0.3 0.40998 s0.14 0.43 0.14 0.67 l0 1.14 l-3.94 0 l0 -1.4 c0 -0.22666 0.05 -0.41332 0.15 -0.55998 s0.19666 -0.25332 0.29 -0.31998 c0.06666 -0.05334 0.12666 -0.11334 0.18 -0.18 s0.09334 -0.15332 0.12 -0.25998 c0.37334 -1.77334 0.71334 -3.36668 1.02 -4.78002 c0.13334 -0.6 0.26 -1.18666 0.38 -1.76 s0.23 -1.08668 0.33 -1.54002 s0.18 -0.82 0.24 -1.1 s0.09 -0.42666 0.09 -0.44 c0.02666 -0.10666 0.04 -0.20332 0.04 -0.28998 s-0.03334 -0.14332 -0.1 -0.16998 c-0.14666 -0.06666 -0.26666 -0.17666 -0.36 -0.33 s-0.14 -0.38334 -0.14 -0.69 l0 -1.14 l3.1 0 c0.30666 0 0.55 0.09334 0.73 0.28 s0.29 0.39332 0.33 0.61998 c0 0.05334 0.03666 0.25668 0.11 0.61002 s0.17 0.8 0.29 1.34 s0.25334 1.14666 0.4 1.82 s0.29332 1.35668 0.43998 2.05002 c0.34666 1.62666 0.74666 3.46666 1.2 5.52 c0.04 0.17334 0.14 0.32 0.3 0.44 z M49.78004 14.01998 c0.09334 0 0.153379 -0.009961 0.180039 -0.029961 s0.03332 -0.07 0.01998 -0.15 c0 -0.02666 -0.02334 -0.16666 -0.07 -0.42 s-0.1 -0.56 -0.16 -0.92 s-0.12666 -0.75 -0.2 -1.17 s-0.14 -0.81 -0.2 -1.17 s-0.11334 -0.66 -0.16 -0.9 s-0.07 -0.36666 -0.07 -0.38 c0 -0.05334 -0.01666 -0.07668 -0.05 -0.07002 s-0.05668 0.02332 -0.07002 0.04998 c0 0.01334 -0.02 0.14334 -0.06 0.39 s-0.09334 0.55 -0.16 0.91 s-0.13666 0.74666 -0.21 1.16 s-0.14334 0.80334 -0.21 1.17 s-0.12332 0.67666 -0.16998 0.93 s-0.07 0.39334 -0.07 0.42 c-0.01334 0.08 -0.00668 0.13 0.01998 0.15 s0.08666 0.03 0.18 0.03 l1.46 0 z"/></g>
			</g>
		</svg>
