<svg width="1200" height="1200" xmlns="http://www.w3.org/2000/svg" xmlns:xlink="http://www.w3.org/1999/xlink" version="1.1"><g transform="scale(20.48556595672262) translate(2.928891499837239, 4.863915761311844)">                        <g fill="#2a2128">    <title xmlns="http://www.w3.org/2000/svg">Asset 76LETTERS3</title>    <g xmlns="http://www.w3.org/2000/svg" id="Page-1" stroke-width="1" fill-rule="evenodd">        <g id="Artboard" transform="translate(-5256.000000, -160.000000)" fill-rule="nonzero">            <g id="Asset-76LETTERS3" transform="translate(5256.000000, 160.030000)">                <path d="M51.7200227,47.79 L28.1100227,47.79 L21.0100227,39.31 L27.7700227,31.25 C28.5100227,30.38 27.9700227,28.81 26.1700227,28.96 L19.2500227,37.2 L17.7200227,39.03 L12.1300227,45.69 C11.0100227,47.02 9.36002267,47.79 7.62002267,47.79 L6.03002267,47.79 C2.70002267,47.79 0,45.09 0,41.76 L0,7.37 C-0.00997733263,3.3 3.29002267,0 7.36002267,0 L10.4200227,0 C14.4500227,0 17.7200227,3.27 17.7200227,7.3 L17.7200227,7.3 L17.3400227,7.76 L13.4200227,12.43 L6.66002267,20.48 C5.93002267,21.36 6.47002267,22.93 8.28002267,22.78 L15.2000227,14.53 L17.7200227,11.54 L19.5100227,9.4 L20.8800227,7.76 L43.9600227,7.76 L38.9200227,13.77 L31.0500227,23.14 L32.8100227,25.24 L51.7200227,47.79 Z" id="Path" stroke="none"/>            </g>        </g>    </g></g>        </g></svg>
